<?xml version="1.0" encoding="UTF-8" standalone="no"?>
<!-- Created with Inkscape (http://www.inkscape.org/) -->

<svg
   version="1.1"
   id="svg1"
   width="2636.5828"
   height="1551.5381"
   viewBox="0 0 2636.5827 1551.538"
   xmlns="http://www.w3.org/2000/svg"
   xmlns:svg="http://www.w3.org/2000/svg">
  <defs
     id="defs1" />
  <g
     id="g1"
     transform="translate(-42.586644,-98.05485)">
    <path
       style="fill:#ffffff;fill-opacity:1;stroke:none"
       d="m 1380.9527,99.386886 c -26.9632,3.315914 -55.1271,1.536944 -82.286,3.399084 -49.9839,3.42709 -100.2994,11.06755 -149.3333,21.49496 -262.4967,55.82162 -511.28773,195.59994 -659.0772,425.05243 -40.86731,63.44906 -75.60075,133.60596 -95.38786,206.66668 -7.73194,28.54899 -14.17566,57.47485 -18.97534,86.66667 -1.74947,10.6403 -0.41285,30.55892 -6.57715,39.44238 -5.61902,8.09766 -25.74296,11.76994 -34.64917,15.5988 -30.72671,13.20963 -61.22917,26.78312 -90.66667,42.70369 -107.82664,58.3156 -229.868446,162.15002 -195.500009,299.58852 4.861105,19.4394 12.514812,38.7607 22.77058,56 32.159069,54.0573 81.480419,94.4373 134.062759,127.5752 97.20036,61.2563 208.61024,98.3981 318.66668,128.9905 233.61377,64.9379 480.00568,89.5417 721.33338,95.4538 199.9321,4.8981 400.286,-0.9757 598.6667,-27.0617 140.4083,-18.4629 280.5877,-44.1847 416,-86.2571 71.554,-22.232 143.2983,-47.9087 209.3333,-83.6226 78.7279,-42.5783 166.2085,-99.8867 197.7438,-188.4115 5.4258,-15.2309 10.8229,-31.7143 11.5371,-48 0.9501,-21.6627 1.2295,-44.1694 -3.7933,-65.3333 -20.0551,-84.5051 -90.6979,-144.9064 -161.4876,-188.76752 -25.4113,-15.74479 -51.9683,-28.91349 -78.6667,-42.22835 -8.0099,-3.99463 -25.6349,-7.85279 -30.0885,-15.95581 -4.5915,-8.35393 -3.5872,-23.5643 -4.9393,-33.04835 -3.4368,-24.10888 -7.1297,-48.2041 -12.5062,-72 -16.7767,-74.25196 -40.3971,-146.94979 -78.3693,-213.33334 -145.6445,-254.61834 -414.0194,-414.68052 -698.0967,-465.89911 -49.6245,-8.94727 -99.1722,-13.45134 -149.3333,-16.88689 -25.7873,-1.766271 -54.7023,-4.985022 -80.3807,-1.827144 m -90.286,171.279794 C 1289.8614,334.62583 1288,398.56276 1288,462.66669 c 0,29.01457 -4.7191,66.33871 7.3529,93.33334 30.3842,67.9432 135.6939,61.1862 166.9536,-1.33334 12.7001,-25.39998 9.6935,-55.13501 9.6935,-82.66667 v -136 c 0,-19.42579 -4.3479,-43.96469 0,-62.66667 20.3604,6.44352 40.2924,24.03255 55.7727,38.2386 43.0638,39.51913 75.6113,93.54225 91.6574,149.76141 11.9534,41.88037 10.2586,86.98983 44.5699,118.54216 59.3822,54.60701 150.9891,13.16276 158.4403,-63.8755 3.6652,-37.89437 -12.8488,-81.88167 -30.1481,-114.66667 -7.0249,-13.31323 -17.5955,-26.05233 -22.9588,-40 17.0887,-5.00399 39.7093,10.5603 54.6667,17.62549 49.3847,23.32699 94.65,51.42953 137.3333,85.57406 122.2355,97.78256 213.8768,239.53362 251.8602,391.46714 11.1281,44.5127 21.4731,88.52377 21.4731,134.66667 0,78.18429 -14.6478,191.41029 -105.3333,216.93309 -12.5757,3.5394 -27.0565,1.7336 -40,1.7336 H 2014.6667 1772.0001 980.00003 722.66669 c -43.34176,0 -87.71379,7.0798 -124.00001,-21.3529 -79.90234,-62.6089 -76.96924,-184.868 -61.91357,-274.64712 31.18905,-185.98504 136.019,-357.24994 289.91358,-467.22846 35.72836,-25.53272 74.33944,-49.12622 114.66667,-66.67074 13.60173,-5.91748 28.97128,-14.74585 44,-15.43416 -2.19116,11.33187 -11.73421,20.5367 -16.98869,30.66667 -12.01253,23.15861 -23.80013,47.57039 -29.0782,73.33333 -6.13786,29.9598 -9.41081,61.04558 5.38989,89.33334 26.7797,51.1827 97.30974,61.28679 140.67704,26.04321 37.9772,-30.86312 34.831,-85.57503 48.893,-128.70988 25.1276,-77.07894 78.5333,-153.77312 156.4403,-184.00001 M 957.33336,679.23766 c -46.04191,6.5931 -93.17155,30.21167 -119.2736,70.09571 -19.40406,29.64941 -19.86621,69.91016 12.60693,91.18726 36.81983,24.12508 88.99244,-8.90121 129.33334,-7.13477 30.50067,1.33553 61.50157,17.93954 91.99997,12.84668 48.6446,-8.12304 53.8621,-67.32332 31.0052,-100.89917 -31.1573,-45.76872 -90.4543,-74.00277 -145.67184,-66.09571 m 752.00004,-0.004 c -45.3578,6.17448 -90.2479,27.51026 -116.8693,66.09978 -20.4235,29.60531 -21.5856,69.43392 10.429,91.92692 24.8915,17.48837 54.0036,8.72592 81.107,3.27263 20.6318,-4.15113 41.6038,-5.86402 62.6666,-4.41358 25.7333,1.77206 51.2601,16.53907 77.3334,12.81381 52.1974,-7.45785 60.5042,-64.95777 34.3888,-102.26645 -31.7681,-45.38411 -93.5454,-74.98967 -149.0555,-67.43311 z"
       id="path1" />
  </g>
</svg>
